<svg width="438" height="79" viewBox="0 0 438 79" fill="none" xmlns="http://www.w3.org/2000/svg">
<path d="M1.064 72.496C1.064 71.984 1.32 71.0453 1.832 69.68C2.68533 67.4613 3.15467 65.4133 3.24 63.536C3.41067 61.6587 3.496 59.5253 3.496 57.136L3.624 48.816V31.152C3.624 26.8 3.624 23.3867 3.624 20.912C3.624 18.4373 3.58133 16.8587 3.496 16.176C3.32533 15.408 3.112 14.5973 2.856 13.744C2.68533 12.8907 2.38667 11.952 1.96 10.928C1.53333 9.904 1.192 8.96533 0.936 8.112C0.765334 7.25866 0.68 6.448 0.68 5.68C0.68 4.22933 1.36267 3.07733 2.728 2.224C4.09333 1.28533 5.84267 0.815994 7.976 0.815994H9.256C12.072 0.815994 14.376 1.37066 16.168 2.48C18.0453 3.504 18.984 5.08266 18.984 7.216C18.984 7.64266 18.8987 8.15466 18.728 8.752C18.5573 9.264 18.3867 9.86133 18.216 10.544C17.7893 11.824 17.2773 13.4453 16.68 15.408C16.2533 17.2853 16.04 25.4773 16.04 39.984C16.04 54.6613 16.424 62.896 17.192 64.688C17.8747 66.6507 19.0693 67.8453 20.776 68.272C22.568 68.6987 25.4267 68.912 29.352 68.912C31.3147 68.912 32.936 68.8267 34.216 68.656C35.5813 68.4853 36.776 68.272 37.8 68.016C38.9093 67.76 39.8907 67.4613 40.744 67.12C41.5973 66.6933 42.4933 66.3093 43.432 65.968C45.3947 65.2 46.8027 64.816 47.656 64.816C50.1307 64.816 51.368 66.48 51.368 69.808V71.088C51.368 73.904 50.5147 75.7813 48.808 76.72C47.1013 77.6587 43.9867 78.128 39.464 78.128H28.328L26.92 78H25.512C14.4187 78 7.63467 77.7013 5.16 77.104C2.42933 76.592 1.064 75.056 1.064 72.496ZM68.622 78H65.806C64.27 78 62.9473 77.5733 61.838 76.72C60.7287 75.7813 60.174 74.7573 60.174 73.648C60.174 72.88 60.5153 71.3867 61.198 69.168C61.7953 67.376 62.094 65.6267 62.094 63.92L62.35 59.696V38.064C62.1793 35.9307 61.8807 34.2667 61.454 33.072L60.942 31.92C60.174 29.9573 59.79 28.9333 59.79 28.848V27.696C59.79 25.5627 62.0087 24.496 66.446 24.496H68.366C69.7313 24.496 70.7553 24.624 71.438 24.88C72.1207 25.136 72.59 25.6907 72.846 26.544C73.1873 27.3973 73.358 28.6773 73.358 30.384C73.4433 32.0907 73.486 34.3947 73.486 37.296V49.84L73.87 57.648C73.87 62 74.766 65.712 76.558 68.784C77.2407 70.1493 77.582 71.5147 77.582 72.88C77.582 74.416 76.7287 75.6533 75.022 76.592C73.3153 77.5307 71.182 78 68.622 78ZM67.726 0.815994H69.646C71.182 0.815994 72.5047 1.28533 73.614 2.224C74.8087 3.16266 75.406 4.57066 75.406 6.448V7.728C75.406 9.264 74.894 10.6293 73.87 11.824C72.9313 13.0187 71.6513 13.616 70.03 13.616L69.006 13.744H67.214C66.8727 13.6587 66.318 13.616 65.55 13.616C64.8673 13.616 64.0567 13.1893 63.118 12.336C62.2647 11.3973 61.838 10.3733 61.838 9.264L61.582 7.472V7.216L61.838 5.424C61.838 4.57066 62.3073 3.58933 63.246 2.48C64.1847 1.37066 65.678 0.815994 67.726 0.815994ZM267.148 77.872H265.1C259.724 77.872 256.012 75.824 253.964 71.728C251.916 67.632 250.892 61.3173 250.892 52.784C250.892 44.4213 250.423 38.6187 249.484 35.376C249.057 34.096 248.119 32.7307 246.668 31.28C245.217 29.8293 244.492 28.5493 244.492 27.44V26.672C244.492 25.8187 245.345 24.7947 247.052 23.6C247.905 23.0027 248.545 22.576 248.972 22.32C249.484 21.9787 249.868 21.5947 250.124 21.168C250.38 20.656 250.593 20.016 250.764 19.248C251.02 18.48 251.319 17.328 251.66 15.792C252.513 12.72 253.367 10.5867 254.22 9.392C255.159 8.112 256.396 7.472 257.932 7.472C259.468 7.472 260.535 7.94133 261.132 8.88C261.729 9.73333 262.369 11.5253 263.052 14.256C263.393 15.6213 263.692 16.7733 263.948 17.712C264.289 18.5653 264.716 19.2907 265.228 19.888C265.74 20.4853 266.423 21.04 267.276 21.552C268.129 21.9787 269.324 22.448 270.86 22.96C273.847 23.984 275.34 25.264 275.34 26.8C275.34 28.1653 273.761 29.4453 270.604 30.64C267.617 31.664 265.655 33.0293 264.716 34.736C263.18 37.808 262.412 43.312 262.412 51.248C262.412 59.2693 263.095 64.0907 264.46 65.712C265.825 67.504 268.044 68.6133 271.116 69.04C274.188 69.3813 275.724 70.5333 275.724 72.496C275.724 73.9467 274.828 75.2267 273.036 76.336C271.329 77.36 269.367 77.872 267.148 77.872ZM298.691 28.72C298.947 29.5733 299.118 31.408 299.203 34.224C299.288 37.04 299.331 40.9227 299.331 45.872C299.331 50.736 299.416 54.7467 299.587 57.904C299.843 61.0613 300.312 63.5787 300.995 65.456C301.678 67.248 302.616 68.4853 303.811 69.168C305.091 69.8507 306.712 70.192 308.675 70.192C313.539 70.192 317.038 68.3147 319.171 64.56C321.39 60.8053 322.499 54.4053 322.499 45.36L322.627 42.416V39.472C322.627 37.5093 322.499 35.504 322.243 33.456C322.072 32.432 321.944 31.664 321.859 31.152C321.774 30.5547 321.731 30.1707 321.731 30C321.731 28.2933 322.328 27.0987 323.523 26.416C324.803 25.648 326.595 25.264 328.899 25.264C331.288 25.264 332.782 26.16 333.379 27.952C333.891 29.0613 334.147 34.864 334.147 45.36C334.147 56.0267 334.702 63.6213 335.811 68.144L336.579 71.216V72.368C336.579 73.3067 336.024 74.2027 334.915 75.056C333.806 75.824 332.227 76.208 330.179 76.208C328.216 76.208 326.211 75.7387 324.163 74.8C322.371 73.9467 321.219 73.52 320.707 73.52C320.366 73.52 318.403 74.16 314.819 75.44C313.112 76.1227 311.491 76.6347 309.955 76.976C308.504 77.3173 307.096 77.488 305.731 77.488H304.195C301.208 77.488 298.52 76.8053 296.131 75.44C293.827 74.0747 292.035 72.1547 290.755 69.68C288.792 65.9253 287.811 58.0747 287.811 46.128C287.811 39.0453 287.555 34.6933 287.043 33.072C287.043 33.072 286.83 32.432 286.403 31.152C285.976 30.2133 285.763 29.36 285.763 28.592V27.44C285.763 25.392 287.64 24.368 291.395 24.368H292.803C295.875 24.368 297.838 25.8187 298.691 28.72Z" fill="white" fill-opacity="0.87"/>
<path d="M110.529 78.128C107.884 78.128 105.409 75.7387 103.105 70.96C101.996 68.4853 100.801 65.6693 99.521 62.512C98.3263 59.2693 97.0037 55.6 95.553 51.504C92.737 43.2267 90.433 37.6373 88.641 34.736C86.9343 31.8347 86.081 29.616 86.081 28.08C86.081 26.544 86.4223 25.4773 87.105 24.88C87.873 24.1973 89.6223 23.856 92.353 23.856C96.705 23.856 99.521 25.4347 100.801 28.592C101.142 29.1893 101.569 30.8533 102.081 33.584C102.252 34.4373 102.55 35.8027 102.977 37.68C103.489 39.472 104.044 41.52 104.641 43.824C105.324 46.128 106.049 48.4747 106.817 50.864C107.585 53.2533 108.31 55.472 108.993 57.52C109.676 59.4827 110.316 61.104 110.913 62.384C111.51 63.664 111.98 64.304 112.321 64.304C112.662 64.304 113.174 63.5787 113.857 62.128C114.54 60.6773 115.308 58.8427 116.161 56.624C117.014 54.4053 117.868 51.9733 118.721 49.328C119.574 46.6827 120.385 44.1227 121.153 41.648C121.921 39.1733 122.561 36.9973 123.073 35.12C123.585 33.1573 123.884 31.8347 123.969 31.152C124.225 28.7627 124.438 27.44 124.609 27.184C125.377 24.9653 127.382 23.856 130.625 23.856H131.777C133.654 23.856 134.934 24.1547 135.617 24.752C136.3 25.264 136.641 26.288 136.641 27.824V28.72C136.641 29.5733 135.532 31.9627 133.313 35.888C133.057 36.3147 132.417 37.8507 131.393 40.496C130.369 43.1413 128.918 46.9387 127.041 51.888C125.249 56.9227 123.67 61.0613 122.305 64.304C121.025 67.5467 119.958 69.936 119.105 71.472C118.252 73.008 117.484 74.2453 116.801 75.184C116.204 76.0373 115.564 76.6773 114.881 77.104C114.284 77.5307 113.644 77.8293 112.961 78C112.278 78.0853 111.468 78.128 110.529 78.128ZM171.268 34.608C167.855 34.608 165.167 36.3147 163.204 39.728C161.327 43.1413 160.388 48.3893 160.388 55.472C160.388 57.008 160.431 58.288 160.516 59.312C160.601 60.336 160.687 61.2747 160.772 62.128C160.943 62.896 161.113 63.664 161.284 64.432C161.54 65.1147 161.796 65.968 162.052 66.992C162.223 67.9307 162.393 68.8267 162.564 69.68C162.735 70.5333 162.82 71.3013 162.82 71.984C162.82 73.4347 161.967 74.7573 160.26 75.952C158.553 77.0613 156.335 77.616 153.604 77.616L152.708 77.488H151.684C149.977 77.488 148.527 77.0187 147.332 76.08C146.137 75.056 145.54 73.9467 145.54 72.752V71.856C145.54 71.5147 145.924 70.2773 146.692 68.144C147.375 65.9253 147.759 63.8347 147.844 61.872C147.929 59.9093 147.972 57.2213 147.972 53.808V44.72L147.844 41.776V37.808C147.844 36.016 147.503 34.1813 146.82 32.304C146.137 30.8533 145.796 29.744 145.796 28.976C145.796 26.7573 147.716 25.648 151.556 25.648C155.481 25.648 158.255 26.7147 159.876 28.848C160.473 29.4453 161.028 29.744 161.54 29.744C162.052 29.744 162.991 29.2747 164.356 28.336C168.111 25.8613 171.183 24.624 173.572 24.624H174.468C176.687 24.624 178.351 25.136 179.46 26.16C180.655 27.0987 181.252 28.3787 181.252 30C181.252 33.328 179.46 34.992 175.876 34.992C174.34 34.736 172.804 34.608 171.268 34.608ZM234.84 73.776C234.84 76.2507 232.365 77.488 227.416 77.488C226.989 77.488 226.392 77.4027 225.624 77.232C224.856 76.976 223.875 76.592 222.68 76.08C220.461 75.2267 219.011 74.8 218.328 74.8C217.645 74.8 215.64 75.44 212.312 76.72C208.984 78 205.997 78.64 203.352 78.64H202.072C200.109 78.64 198.232 78.2987 196.44 77.616C194.648 76.9333 193.069 75.952 191.704 74.672C190.424 73.392 189.357 71.856 188.504 70.064C187.736 68.272 187.352 66.224 187.352 63.92C187.352 54.5333 193.24 48.7733 205.016 46.64C212.696 45.104 216.621 44.2933 216.792 44.208C218.584 43.2693 219.48 41.6053 219.48 39.216C219.48 36.7413 218.712 34.736 217.176 33.2C215.64 31.5787 213.549 30.768 210.904 30.768C208.173 30.768 205.101 31.6213 201.688 33.328C198.104 35.12 195.672 36.016 194.392 36.016C192.003 36.016 190.808 34.3947 190.808 31.152C190.808 30.128 191.32 29.104 192.344 28.08C193.368 27.056 194.733 26.16 196.44 25.392C198.147 24.5387 200.109 23.856 202.328 23.344C204.547 22.832 206.851 22.576 209.24 22.576H212.056C215.64 22.576 218.797 23.2587 221.528 24.624C224.344 25.9893 226.477 27.824 227.928 30.128C230.061 33.2853 231.128 40.752 231.128 52.528C231.128 59.184 231.256 63.28 231.512 64.816C231.768 66.5227 232.408 68.144 233.432 69.68C234.371 71.216 234.84 72.5813 234.84 73.776ZM207.064 71.216H208.728C212.227 71.216 214.957 70.064 216.92 67.76C218.968 65.456 219.992 62.128 219.992 57.776V55.6C219.992 52.8693 218.84 51.504 216.536 51.504H214.872L210.52 51.888C207.107 51.888 204.291 52.8267 202.072 54.704C199.939 56.5813 198.872 58.8427 198.872 61.488V63.408C198.872 65.3707 199.555 67.1627 200.92 68.784C202.371 70.4053 204.419 71.216 207.064 71.216ZM374.268 34.608C370.855 34.608 368.167 36.3147 366.204 39.728C364.327 43.1413 363.388 48.3893 363.388 55.472C363.388 57.008 363.431 58.288 363.516 59.312C363.601 60.336 363.687 61.2747 363.772 62.128C363.943 62.896 364.113 63.664 364.284 64.432C364.54 65.1147 364.796 65.968 365.052 66.992C365.223 67.9307 365.393 68.8267 365.564 69.68C365.735 70.5333 365.82 71.3013 365.82 71.984C365.82 73.4347 364.967 74.7573 363.26 75.952C361.553 77.0613 359.335 77.616 356.604 77.616L355.708 77.488H354.684C352.977 77.488 351.527 77.0187 350.332 76.08C349.137 75.056 348.54 73.9467 348.54 72.752V71.856C348.54 71.5147 348.924 70.2773 349.692 68.144C350.375 65.9253 350.759 63.8347 350.844 61.872C350.929 59.9093 350.972 57.2213 350.972 53.808V44.72L350.844 41.776V37.808C350.844 36.016 350.503 34.1813 349.82 32.304C349.137 30.8533 348.796 29.744 348.796 28.976C348.796 26.7573 350.716 25.648 354.556 25.648C358.481 25.648 361.255 26.7147 362.876 28.848C363.473 29.4453 364.028 29.744 364.54 29.744C365.052 29.744 365.991 29.2747 367.356 28.336C371.111 25.8613 374.183 24.624 376.572 24.624H377.468C379.687 24.624 381.351 25.136 382.46 26.16C383.655 27.0987 384.252 28.3787 384.252 30C384.252 33.328 382.46 34.992 378.876 34.992C377.34 34.736 375.804 34.608 374.268 34.608ZM437.84 73.776C437.84 76.2507 435.365 77.488 430.416 77.488C429.989 77.488 429.392 77.4027 428.624 77.232C427.856 76.976 426.875 76.592 425.68 76.08C423.461 75.2267 422.011 74.8 421.328 74.8C420.645 74.8 418.64 75.44 415.312 76.72C411.984 78 408.997 78.64 406.352 78.64H405.072C403.109 78.64 401.232 78.2987 399.44 77.616C397.648 76.9333 396.069 75.952 394.704 74.672C393.424 73.392 392.357 71.856 391.504 70.064C390.736 68.272 390.352 66.224 390.352 63.92C390.352 54.5333 396.24 48.7733 408.016 46.64C415.696 45.104 419.621 44.2933 419.792 44.208C421.584 43.2693 422.48 41.6053 422.48 39.216C422.48 36.7413 421.712 34.736 420.176 33.2C418.64 31.5787 416.549 30.768 413.904 30.768C411.173 30.768 408.101 31.6213 404.688 33.328C401.104 35.12 398.672 36.016 397.392 36.016C395.003 36.016 393.808 34.3947 393.808 31.152C393.808 30.128 394.32 29.104 395.344 28.08C396.368 27.056 397.733 26.16 399.44 25.392C401.147 24.5387 403.109 23.856 405.328 23.344C407.547 22.832 409.851 22.576 412.24 22.576H415.056C418.64 22.576 421.797 23.2587 424.528 24.624C427.344 25.9893 429.477 27.824 430.928 30.128C433.061 33.2853 434.128 40.752 434.128 52.528C434.128 59.184 434.256 63.28 434.512 64.816C434.768 66.5227 435.408 68.144 436.432 69.68C437.371 71.216 437.84 72.5813 437.84 73.776ZM410.064 71.216H411.728C415.227 71.216 417.957 70.064 419.92 67.76C421.968 65.456 422.992 62.128 422.992 57.776V55.6C422.992 52.8693 421.84 51.504 419.536 51.504H417.872L413.52 51.888C410.107 51.888 407.291 52.8267 405.072 54.704C402.939 56.5813 401.872 58.8427 401.872 61.488V63.408C401.872 65.3707 402.555 67.1627 403.92 68.784C405.371 70.4053 407.419 71.216 410.064 71.216Z" fill="white"/>
</svg>
